<svg version="1.1" id="Layer_1" xmlns="http://www.w3.org/2000/svg" xmlns:xlink="http://www.w3.org/1999/xlink" x="0px" y="0px"
	 width="100%" viewBox="0 0 367 345" enable-background="new 0 0 367 345" xml:space="preserve">
<path fill="#47704C" opacity="1.000000" stroke="none" 
	d="
M368.000000,125.000000 
	C368.000000,199.000000 368.000000,272.500000 368.000000,346.000000 
	C245.666672,346.000000 123.333359,346.000000 1.000026,346.000000 
	C1.000018,231.000015 1.000018,116.000038 1.000009,1.000042 
	C123.333305,1.000028 245.666611,1.000028 367.999939,1.000014 
	C368.000000,42.166668 368.000000,83.333336 368.000000,125.000000 
M328.874512,70.425934 
	C328.211029,69.631454 327.547546,68.836975 326.352844,67.847260 
	C325.887604,67.269997 325.422333,66.692734 324.886414,65.442619 
	C324.218781,64.642647 323.551147,63.842682 322.320679,62.818947 
	C321.532745,61.917927 320.744843,61.016907 319.886292,59.442974 
	C319.218719,58.642876 318.551117,57.842777 317.276398,56.777222 
	C313.503418,52.890129 309.730408,49.003036 305.776550,44.436192 
	C304.479340,43.638706 303.182129,42.841221 301.321960,41.819775 
	C300.533783,40.918488 299.745605,40.017204 298.776520,38.436195 
	C297.479370,37.638695 296.182220,36.841198 294.429779,35.907398 
	C294.138947,35.723278 293.981506,35.459538 293.817169,34.648361 
	C293.197540,34.471249 292.577881,34.294136 291.305359,34.015728 
	C290.870483,33.955235 290.435608,33.894741 289.903564,33.204037 
	C289.230225,32.483585 288.556915,31.763136 287.428711,30.906925 
	C287.138275,30.722948 286.981110,30.459471 286.699982,29.506258 
	C285.768341,29.024757 284.836700,28.543257 283.971252,28.033245 
	C283.971252,28.033245 283.942169,28.099190 283.805328,27.633598 
	C283.189606,27.461456 282.573914,27.289314 281.189056,27.016846 
	C280.690918,26.975130 280.103088,27.091858 279.707886,26.868235 
	C272.321228,22.688721 265.133423,18.109949 257.528931,14.379395 
	C252.170364,11.750635 246.311279,10.068624 240.567200,8.320312 
	C235.002655,6.626654 229.299500,5.388433 223.657227,3.950178 
	C226.703583,8.267480 230.529282,11.407724 233.565582,15.182876 
	C242.336899,26.088631 248.401947,38.230217 249.001190,52.566586 
	C249.683670,68.894356 244.610825,83.341049 234.421448,95.964081 
	C231.245972,99.897980 227.712280,103.665001 223.801208,106.841972 
	C220.964859,109.145958 216.894211,109.902336 213.968872,112.130043 
	C204.487427,119.350327 193.110229,119.379974 182.344650,119.614258 
	C172.301895,119.832809 162.111298,117.158913 153.666061,110.859886 
	C146.452393,105.479446 138.691071,100.426453 132.830734,93.768585 
	C128.242920,88.556419 125.551453,81.335228 123.181404,74.597237 
	C120.248566,66.259254 118.578957,57.423016 121.059891,48.571091 
	C123.116478,41.233192 124.653427,33.442158 128.358002,26.958925 
	C132.166473,20.293869 138.343109,14.987851 143.435074,9.045676 
	C144.521362,7.778016 145.399307,6.331841 146.373245,4.967907 
	C146.055573,4.442397 145.737900,3.916888 145.420212,3.391378 
	C142.441833,4.334129 139.399109,5.112809 136.497208,6.250603 
	C128.021988,9.573606 118.905212,10.948627 110.893784,15.826176 
	C103.737267,20.183231 95.448349,22.733746 88.469063,27.315245 
	C79.316681,33.323246 70.623024,40.153473 62.332237,47.323982 
	C46.769672,60.783676 36.035801,78.012695 26.635620,96.028862 
	C23.582254,101.880875 21.825884,108.433678 19.702597,114.742126 
	C14.538144,130.086105 10.223680,145.629440 10.018814,161.988159 
	C9.918382,170.007782 9.829198,178.034958 10.073443,186.048386 
	C10.197339,190.113266 10.718039,194.241196 11.676230,198.190979 
	C14.241603,208.765762 14.783053,219.806137 19.786840,229.845200 
	C22.681410,235.652542 23.793951,242.360733 26.780218,248.106491 
	C30.355862,254.986221 34.812805,261.460602 39.361744,267.769012 
	C45.643291,276.480194 51.639172,285.585846 59.103630,293.203400 
	C66.812904,301.070740 75.878532,307.710083 84.834679,314.221008 
	C91.444450,319.026215 98.717201,322.972351 105.919670,326.887115 
	C109.573105,328.872894 113.998070,329.464905 117.594315,331.524872 
	C125.477608,336.040436 134.010941,338.071106 142.835205,339.255280 
	C144.181747,339.436005 145.635376,338.818695 146.204224,338.718109 
	C144.983932,335.038300 144.229248,331.848755 142.887665,328.928894 
	C140.817245,324.422638 138.111237,320.204498 136.104950,315.673706 
	C133.810577,310.492310 132.006485,305.094849 129.939499,299.810760 
	C129.586868,298.909271 128.925354,298.133514 128.506958,297.251984 
	C126.319122,292.642639 124.167145,288.016296 121.995399,283.399292 
	C120.988609,281.258911 120.214203,278.953796 118.884720,277.034973 
	C117.311600,274.764496 115.800598,272.784546 118.427345,270.160767 
	C132.224731,286.255707 145.949783,302.266266 159.674850,318.276825 
	C160.142838,318.031555 160.610809,317.786285 161.078796,317.541046 
	C169.097061,262.028320 177.115326,206.515640 185.133591,151.002945 
	C185.508148,151.053421 185.882690,151.103912 186.257248,151.154404 
	C185.506180,156.412384 184.755112,161.670364 184.004044,166.928345 
	C184.262497,166.955109 184.520966,166.981857 184.779434,167.008606 
	C185.343597,164.364929 185.907761,161.721252 186.671722,158.141251 
	C187.539062,166.017303 188.140518,172.878799 189.076035,179.694443 
	C191.298004,195.882690 193.789780,212.034271 195.960312,228.229111 
	C197.808182,242.016556 199.227356,255.861465 201.076889,269.648682 
	C203.248840,285.839233 205.680740,301.994873 208.199554,318.574066 
	C208.785507,318.344025 209.371460,318.113953 210.214661,317.285431 
	C212.104538,315.509491 213.994415,313.733551 216.496552,311.696564 
	C216.983170,310.759521 217.469803,309.822479 218.206970,308.293976 
	C219.766006,306.848480 221.325043,305.402985 223.496429,303.696503 
	C223.983047,302.759338 224.469666,301.822205 225.213531,300.286377 
	C227.103683,298.510071 228.993835,296.733765 231.496353,294.696442 
	C231.982986,293.759277 232.469620,292.822144 233.213730,291.286377 
	C235.103851,289.510101 236.993988,287.733826 239.496460,285.696503 
	C239.983078,284.759369 240.469711,283.822235 241.207108,282.293396 
	C242.767502,280.846863 244.327896,279.400360 246.423019,278.355530 
	C246.627457,279.685059 247.390671,281.253021 246.942215,282.303955 
	C244.666061,287.638245 242.084656,292.842682 239.593506,298.084717 
	C233.897110,310.071320 228.188278,322.052032 222.491943,334.038696 
	C221.667267,335.774017 220.706299,337.589081 224.057129,338.525482 
	C224.385605,338.978363 224.714081,339.431244 225.222855,340.559692 
	C227.205261,341.025574 229.514984,342.394348 231.117859,341.813263 
	C242.987259,337.510406 254.738968,332.876831 266.458191,328.174103 
	C267.835693,327.621338 268.791382,326.017487 269.966431,324.965851 
	C269.966431,324.965851 269.901459,324.942108 270.628876,324.813080 
	C272.733459,323.509003 274.838043,322.204956 276.966431,320.965820 
	C276.966431,320.965820 276.901459,320.942078 277.603699,320.818878 
	C279.050018,319.846008 280.496338,318.873138 281.970001,317.965851 
	C281.970001,317.965851 281.904236,317.938995 282.571136,317.876312 
	C283.361603,317.217712 284.152100,316.559113 284.970184,315.966125 
	C284.970184,315.966125 284.904358,315.938995 285.571198,315.876312 
	C286.361664,315.217712 287.152100,314.559113 287.970184,313.966125 
	C287.970184,313.966125 287.904358,313.938995 288.573578,313.875061 
	C289.369171,313.213898 290.164764,312.552765 291.098022,311.434967 
	C291.283142,311.143616 291.547821,310.985291 292.563721,310.888062 
	C293.361694,310.220184 294.159668,309.552277 295.093689,308.429199 
	C295.277985,308.138702 295.541718,307.981354 296.557648,307.886536 
	C297.357635,307.219086 298.157593,306.551636 299.197571,305.303833 
	C300.426483,304.188232 301.655396,303.072632 303.557159,301.886414 
	C304.357300,301.218964 305.157410,300.551514 306.223022,299.276917 
	C310.109955,295.503723 313.996887,291.730560 318.496216,287.696442 
	C318.982880,286.759277 319.469574,285.822144 320.196442,284.304565 
	C321.425690,283.188904 322.654938,282.073273 324.496460,280.696564 
	C324.983124,279.759491 325.469788,278.822418 326.092773,277.429993 
	C326.276855,277.139130 326.540619,276.981628 327.496307,276.696533 
	C327.983063,275.759521 328.469788,274.822510 329.092865,273.430084 
	C329.277069,273.139252 329.540894,272.981750 330.494354,272.700104 
	C330.975739,271.768494 331.457092,270.836884 331.966553,269.971313 
	C331.966553,269.971313 331.900787,269.942688 332.508514,269.688721 
	C332.985168,268.760895 333.461792,267.833038 333.966553,266.971252 
	C333.966553,266.971252 333.900726,266.942627 334.508453,266.688660 
	C334.985107,265.760803 335.461761,264.832977 335.966187,263.971100 
	C335.966187,263.971100 335.900452,263.942749 336.526154,263.689636 
	C337.331482,262.093567 338.136810,260.497528 338.965790,258.966370 
	C338.965790,258.966370 338.900879,258.942688 339.550812,258.711182 
	C341.321136,255.591187 343.082275,252.465927 344.863403,249.352112 
	C353.460968,234.321609 358.488953,218.058426 361.375580,201.084808 
	C361.533539,200.155975 360.406799,199.008667 359.983948,197.308884 
	C360.044678,196.872711 360.105408,196.436554 360.846680,195.862640 
	C361.499634,194.695053 362.634369,193.563904 362.725861,192.353867 
	C363.244904,185.487701 363.928711,178.590271 363.723663,171.728363 
	C363.586304,167.130798 362.067047,162.574524 361.025848,157.268539 
	C360.980652,156.526215 360.935425,155.783905 361.430084,154.629593 
	C363.405823,152.431580 363.475800,150.754028 360.022491,149.355194 
	C359.976685,148.918015 359.930878,148.480850 360.454834,147.595993 
	C360.767609,145.917953 361.581940,144.155609 361.316284,142.574783 
	C358.406006,125.257828 351.900024,109.162407 344.180786,93.517387 
	C343.509094,92.156029 342.013855,91.201027 340.966064,90.033485 
	C340.966064,90.033485 340.942200,90.098404 340.813171,89.370979 
	C339.509125,87.266396 338.205109,85.161819 336.966675,83.029434 
	C336.966675,83.029434 336.939270,83.095215 336.876465,82.428429 
	C336.217804,81.638107 335.559113,80.847786 334.965485,80.033813 
	C334.965485,80.033813 334.941772,80.098824 334.818390,79.415771 
	C333.600769,77.943748 332.383148,76.471733 331.018280,74.567902 
	C331.018280,74.567902 330.956909,74.115822 330.888123,73.445908 
	C330.225586,72.649742 329.563049,71.853569 328.966095,71.029961 
	C328.966095,71.029961 328.939026,71.095741 328.874512,70.425934 
M204.536194,48.149948 
	C201.658752,45.281933 198.606369,42.564625 195.962143,39.495678 
	C194.031570,37.255028 191.356583,34.584358 191.291183,32.046680 
	C191.179062,27.696470 189.597076,25.076525 184.921387,22.427168 
	C183.765457,24.312593 182.483871,26.104776 181.514008,28.052200 
	C179.910431,31.272072 178.918610,34.868145 176.938156,37.814426 
	C172.308533,44.701759 167.084091,51.062111 158.319824,53.045780 
	C155.523071,53.678783 152.804886,54.658901 150.282242,55.411163 
	C149.247787,60.070702 150.340485,61.973324 155.346375,62.258602 
	C159.201370,62.478294 163.788651,63.959633 166.546585,66.507607 
	C173.170013,72.626770 180.462662,78.555428 182.041336,88.502747 
	C182.303223,90.152939 184.745682,92.675735 186.161911,92.663406 
	C188.881348,92.639748 191.150223,90.871040 191.066650,87.320244 
	C191.018021,85.254181 191.013351,82.703484 192.113586,81.186630 
	C195.147949,77.003265 198.253860,72.550201 202.315872,69.526009 
	C206.226105,66.614815 209.876404,62.292316 215.798691,62.953106 
	C219.211624,63.333912 221.197266,60.686504 221.667282,58.076782 
	C221.853455,57.043037 218.679092,55.054539 216.746429,54.062725 
	C212.920135,52.099148 208.893219,50.526546 204.536194,48.149948 
z"/>
<path fill="#F3F0EE" opacity="1.000000" stroke="none" 
	d="
M225.042557,339.884125 
	C224.714081,339.431244 224.385605,338.978363 224.015976,337.870636 
	C225.566956,334.000580 227.306976,330.848969 228.722015,327.557648 
	C232.228363,319.402008 235.507339,311.148163 239.054367,303.010803 
	C240.044281,300.739777 241.802444,298.815247 242.938904,296.593994 
	C244.936661,292.689240 246.924515,288.757294 248.550110,284.690277 
	C250.290085,280.337128 251.606827,275.814819 253.108292,271.366333 
	C252.644272,271.091614 252.180252,270.816864 251.716232,270.542114 
	C249.773590,273.012695 247.830933,275.483246 245.888275,277.953827 
	C244.327896,279.400360 242.767502,280.846863 240.779907,282.724091 
	C239.863190,284.089050 239.373657,285.023315 238.884125,285.957550 
	C236.993988,287.733826 235.103851,289.510101 232.783157,291.720520 
	C231.863052,293.088928 231.373520,294.023193 230.883987,294.957458 
	C228.993835,296.733765 227.103683,298.510071 224.783112,300.720581 
	C223.863144,302.089020 223.373611,303.023254 222.884094,303.957520 
	C221.325043,305.402985 219.766006,306.848480 217.779907,308.724548 
	C216.863312,310.089264 216.373795,311.023438 215.884277,311.957611 
	C213.994415,313.733551 212.104538,315.509491 209.759552,317.634888 
	C208.869583,318.044800 208.434738,318.105225 207.999878,318.165649 
	C205.680740,301.994873 203.248840,285.839233 201.076889,269.648682 
	C199.227356,255.861465 197.808182,242.016556 195.960312,228.229111 
	C193.789780,212.034271 191.298004,195.882690 189.076035,179.694443 
	C188.140518,172.878799 187.539062,166.017303 186.671722,158.141251 
	C185.907761,161.721252 185.343597,164.364929 184.779434,167.008606 
	C184.520966,166.981857 184.262497,166.955109 184.004044,166.928345 
	C184.755112,161.670364 185.506180,156.412384 186.257248,151.154404 
	C185.882690,151.103912 185.508148,151.053421 185.133591,151.002945 
	C177.115326,206.515640 169.097061,262.028320 161.078796,317.541046 
	C160.610809,317.786285 160.142838,318.031555 159.674850,318.276825 
	C145.949783,302.266266 132.224731,286.255707 118.427345,270.160767 
	C115.800598,272.784546 117.311600,274.764496 118.884720,277.034973 
	C120.214203,278.953796 120.988609,281.258911 121.995399,283.399292 
	C124.167145,288.016296 126.319122,292.642639 128.506958,297.251984 
	C128.925354,298.133514 129.586868,298.909271 129.939499,299.810760 
	C132.006485,305.094849 133.810577,310.492310 136.104950,315.673706 
	C138.111237,320.204498 140.817245,324.422638 142.887665,328.928894 
	C144.229248,331.848755 144.983932,335.038300 146.204224,338.718109 
	C145.635376,338.818695 144.181747,339.436005 142.835205,339.255280 
	C134.010941,338.071106 125.477608,336.040436 117.594315,331.524872 
	C113.998070,329.464905 109.573105,328.872894 105.919670,326.887115 
	C98.717201,322.972351 91.444450,319.026215 84.834679,314.221008 
	C75.878532,307.710083 66.812904,301.070740 59.103630,293.203400 
	C51.639172,285.585846 45.643291,276.480194 39.361744,267.769012 
	C34.812805,261.460602 30.355862,254.986221 26.780218,248.106491 
	C23.793951,242.360733 22.681410,235.652542 19.786840,229.845200 
	C14.783053,219.806137 14.241603,208.765762 11.676230,198.190979 
	C10.718039,194.241196 10.197339,190.113266 10.073443,186.048386 
	C9.829198,178.034958 9.918382,170.007782 10.018814,161.988159 
	C10.223680,145.629440 14.538144,130.086105 19.702597,114.742126 
	C21.825884,108.433678 23.582254,101.880875 26.635620,96.028862 
	C36.035801,78.012695 46.769672,60.783676 62.332237,47.323982 
	C70.623024,40.153473 79.316681,33.323246 88.469063,27.315245 
	C95.448349,22.733746 103.737267,20.183231 110.893784,15.826176 
	C118.905212,10.948627 128.021988,9.573606 136.497208,6.250603 
	C139.399109,5.112809 142.441833,4.334129 145.420212,3.391378 
	C145.737900,3.916888 146.055573,4.442397 146.373245,4.967907 
	C145.399307,6.331841 144.521362,7.778016 143.435074,9.045676 
	C138.343109,14.987851 132.166473,20.293869 128.358002,26.958925 
	C124.653427,33.442158 123.116478,41.233192 121.059891,48.571091 
	C118.578957,57.423016 120.248566,66.259254 123.181404,74.597237 
	C125.551453,81.335228 128.242920,88.556419 132.830734,93.768585 
	C138.691071,100.426453 146.452393,105.479446 153.666061,110.859886 
	C162.111298,117.158913 172.301895,119.832809 182.344650,119.614258 
	C193.110229,119.379974 204.487427,119.350327 213.968872,112.130043 
	C216.894211,109.902336 220.964859,109.145958 223.801208,106.841972 
	C227.712280,103.665001 231.245972,99.897980 234.421448,95.964081 
	C244.610825,83.341049 249.683670,68.894356 249.001190,52.566586 
	C248.401947,38.230217 242.336899,26.088631 233.565582,15.182876 
	C230.529282,11.407724 226.703583,8.267480 223.657227,3.950178 
	C229.299500,5.388433 235.002655,6.626654 240.567200,8.320312 
	C246.311279,10.068624 252.170364,11.750635 257.528931,14.379395 
	C265.133423,18.109949 272.321228,22.688721 279.707886,26.868235 
	C280.103088,27.091858 280.690918,26.975130 281.697876,27.342680 
	C282.785187,27.812073 283.363678,27.955631 283.942169,28.099190 
	C283.942169,28.099190 283.971252,28.033245 284.070099,28.348297 
	C285.098389,29.147732 286.027832,29.632113 286.957275,30.116493 
	C286.981110,30.459471 287.138275,30.722948 287.709412,31.297165 
	C288.660339,32.403019 289.330536,33.118637 290.000732,33.834251 
	C290.435608,33.894741 290.870483,33.955235 291.757904,34.343483 
	C292.792755,34.819550 293.375092,34.967861 293.957397,35.116177 
	C293.981506,35.459538 294.138947,35.723278 294.795532,36.281483 
	C296.426666,37.475685 297.692047,38.295803 298.957428,39.115921 
	C299.745605,40.017204 300.533783,40.918488 301.741577,42.237698 
	C303.426575,43.475723 304.692017,44.295830 305.957428,45.115936 
	C309.730408,49.003036 313.503418,52.890129 317.633514,57.236382 
	C318.646057,58.502327 319.301483,59.309109 319.956909,60.115891 
	C320.744843,61.016907 321.532745,61.917927 322.655670,63.257229 
	C323.646149,64.502159 324.301636,65.308807 324.957092,66.115463 
	C325.422333,66.692734 325.887604,67.269997 326.671875,68.269203 
	C327.640259,69.492676 328.289642,70.294212 328.939026,71.095749 
	C328.939026,71.095741 328.966095,71.029961 328.979980,71.369781 
	C329.648254,72.511665 330.302582,73.313744 330.956909,74.115814 
	C330.956909,74.115822 331.018280,74.567902 331.028442,75.141068 
	C332.339691,77.175766 333.640717,78.637291 334.941772,80.098824 
	C334.941772,80.098824 334.965485,80.033813 334.979553,80.369598 
	C335.642181,81.501984 336.290741,82.298599 336.939270,83.095215 
	C336.939270,83.095215 336.966675,83.029434 336.984009,83.411980 
	C338.314972,85.895821 339.628601,87.997108 340.942200,90.098404 
	C340.942200,90.098404 340.966064,90.033485 340.983154,90.411369 
	C344.332947,99.028458 347.824005,107.208252 350.944702,115.527008 
	C353.156860,121.423904 355.055237,127.456619 356.743896,133.526031 
	C358.068756,138.287949 358.857910,143.198914 359.885071,148.043671 
	C359.930878,148.480850 359.976685,148.918015 360.023956,150.061554 
	C360.313690,152.192459 360.601959,153.617020 360.890228,155.041580 
	C360.935425,155.783905 360.980652,156.526215 361.025696,158.098175 
	C360.739075,171.285339 360.452606,183.642868 360.166168,196.000381 
	C360.105408,196.436554 360.044678,196.872711 359.595612,197.853363 
	C357.396027,206.105789 355.840302,213.885605 353.699310,221.500854 
	C351.688568,228.652786 349.326569,235.735428 346.618317,242.652481 
	C344.432922,248.234100 341.501373,253.523590 338.900879,258.942688 
	C338.900879,258.942688 338.965790,258.966370 338.580017,258.985413 
	C337.429626,260.650543 336.665039,262.296631 335.900452,263.942749 
	C335.900452,263.942749 335.966187,263.971100 335.652527,264.069122 
	C334.859497,265.092316 334.380127,266.017456 333.900726,266.942627 
	C333.900726,266.942627 333.966553,266.971252 333.652771,267.069214 
	C332.859589,268.092377 332.380188,269.017517 331.900787,269.942688 
	C331.900787,269.942688 331.966553,269.971313 331.651733,270.070251 
	C330.852722,271.098663 330.368530,272.028137 329.884338,272.957611 
	C329.540894,272.981750 329.277069,273.139252 328.722839,273.792603 
	C327.863220,275.089233 327.373627,276.023346 326.884003,276.957489 
	C326.540619,276.981628 326.276855,277.139130 325.722809,277.792511 
	C324.863312,279.089233 324.373749,280.023438 323.884186,280.957611 
	C322.654938,282.073273 321.425690,283.188904 319.774506,284.729645 
	C318.862976,286.088959 318.373413,287.023163 317.883850,287.957397 
	C313.996887,291.730560 310.109955,295.503723 305.763855,299.634033 
	C304.497925,300.646454 303.691101,301.301727 302.884308,301.957001 
	C301.655396,303.072632 300.426483,304.188232 298.751160,305.647583 
	C297.498138,306.646606 296.691528,307.301910 295.884888,307.957214 
	C295.541718,307.981354 295.277985,308.138702 294.699463,308.710327 
	C293.500824,309.647644 292.696442,310.303802 291.892029,310.959991 
	C291.547821,310.985291 291.283142,311.143616 290.704712,311.716125 
	C289.509094,312.644562 288.706726,313.291779 287.904358,313.938995 
	C287.904358,313.938995 287.970184,313.966125 287.632385,313.979889 
	C286.497833,314.642090 285.701111,315.290558 284.904358,315.938995 
	C284.904358,315.938995 284.970184,315.966125 284.632385,315.979889 
	C283.497833,316.642090 282.701019,317.290558 281.904236,317.938995 
	C281.904236,317.938995 281.970001,317.965851 281.575195,317.974365 
	C279.754089,318.969299 278.327759,319.955688 276.901459,320.942078 
	C276.901459,320.942078 276.966431,320.965820 276.575439,320.985474 
	C274.370850,322.765533 270.129730,320.651794 269.901459,324.942108 
	C269.901459,324.942108 269.966431,324.965851 269.586487,324.983368 
	C259.241547,328.960327 249.360275,333.152985 239.273575,336.773346 
	C234.741577,338.399994 229.798889,338.882477 225.042557,339.884125 
z"/>
<path fill="#F3F0EE" opacity="1.000000" stroke="none" 
	d="
M204.742706,48.471134 
	C208.893219,50.526546 212.920135,52.099148 216.746429,54.062725 
	C218.679092,55.054539 221.853455,57.043037 221.667282,58.076782 
	C221.197266,60.686504 219.211624,63.333912 215.798691,62.953106 
	C209.876404,62.292316 206.226105,66.614815 202.315872,69.526009 
	C198.253860,72.550201 195.147949,77.003265 192.113586,81.186630 
	C191.013351,82.703484 191.018021,85.254181 191.066650,87.320244 
	C191.150223,90.871040 188.881348,92.639748 186.161911,92.663406 
	C184.745682,92.675735 182.303223,90.152939 182.041336,88.502747 
	C180.462662,78.555428 173.170013,72.626770 166.546585,66.507607 
	C163.788651,63.959633 159.201370,62.478294 155.346375,62.258602 
	C150.340485,61.973324 149.247787,60.070702 150.282242,55.411163 
	C152.804886,54.658901 155.523071,53.678783 158.319824,53.045780 
	C167.084091,51.062111 172.308533,44.701759 176.938156,37.814426 
	C178.918610,34.868145 179.910431,31.272072 181.514008,28.052200 
	C182.483871,26.104776 183.765457,24.312593 184.921387,22.427168 
	C189.597076,25.076525 191.179062,27.696470 191.291183,32.046680 
	C191.356583,34.584358 194.031570,37.255028 195.962143,39.495678 
	C198.606369,42.564625 201.658752,45.281933 204.742706,48.471134 
z"/>
<path fill="#47704C" opacity="1.000000" stroke="none" 
	d="
M246.155640,278.154663 
	C247.830933,275.483246 249.773590,273.012695 251.716232,270.542114 
	C252.180252,270.816864 252.644272,271.091614 253.108292,271.366333 
	C251.606827,275.814819 250.290085,280.337128 248.550110,284.690277 
	C246.924515,288.757294 244.936661,292.689240 242.938904,296.593994 
	C241.802444,298.815247 240.044281,300.739777 239.054367,303.010803 
	C235.507339,311.148163 232.228363,319.402008 228.722015,327.557648 
	C227.306976,330.848969 225.566956,334.000580 223.904602,337.608093 
	C220.706299,337.589081 221.667267,335.774017 222.491943,334.038696 
	C228.188278,322.052032 233.897110,310.071320 239.593506,298.084717 
	C242.084656,292.842682 244.666061,287.638245 246.942215,282.303955 
	C247.390671,281.253021 246.627457,279.685059 246.155640,278.154663 
z"/>
<path fill="#47704C" opacity="1.000000" stroke="none" 
	d="
M339.225830,258.826935 
	C341.501373,253.523590 344.432922,248.234100 346.618317,242.652481 
	C349.326569,235.735428 351.688568,228.652786 353.699310,221.500854 
	C355.840302,213.885605 357.396027,206.105789 359.542664,198.180450 
	C360.406799,199.008667 361.533539,200.155975 361.375580,201.084808 
	C358.488953,218.058426 353.460968,234.321609 344.863403,249.352112 
	C343.082275,252.465927 341.321136,255.591187 339.225830,258.826935 
z"/>
<path fill="#47704C" opacity="1.000000" stroke="none" 
	d="
M360.169952,147.819824 
	C358.857910,143.198914 358.068756,138.287949 356.743896,133.526031 
	C355.055237,127.456619 353.156860,121.423904 350.944702,115.527008 
	C347.824005,107.208252 344.332947,99.028458 340.950684,90.423264 
	C342.013855,91.201027 343.509094,92.156029 344.180786,93.517387 
	C351.900024,109.162407 358.406006,125.257828 361.316284,142.574783 
	C361.581940,144.155609 360.767609,145.917953 360.169952,147.819824 
z"/>
<path fill="#47704C" opacity="1.000000" stroke="none" 
	d="
M225.132706,340.221924 
	C229.798889,338.882477 234.741577,338.399994 239.273575,336.773346 
	C249.360275,333.152985 259.241547,328.960327 269.574585,324.950897 
	C268.791382,326.017487 267.835693,327.621338 266.458191,328.174103 
	C254.738968,332.876831 242.987259,337.510406 231.117859,341.813263 
	C229.514984,342.394348 227.205261,341.025574 225.132706,340.221924 
z"/>
<path fill="#47704C" opacity="1.000000" stroke="none" 
	d="
M360.506409,195.931519 
	C360.452606,183.642868 360.739075,171.285339 361.095825,158.463806 
	C362.067047,162.574524 363.586304,167.130798 363.723663,171.728363 
	C363.928711,178.590271 363.244904,185.487701 362.725861,192.353867 
	C362.634369,193.563904 361.499634,194.695053 360.506409,195.931519 
z"/>
<path fill="#47704C" opacity="1.000000" stroke="none" 
	d="
M270.265167,324.877594 
	C270.129730,320.651794 274.370850,322.765533 276.563538,320.953003 
	C274.838043,322.204956 272.733459,323.509003 270.265167,324.877594 
z"/>
<path fill="#47704C" opacity="1.000000" stroke="none" 
	d="
M361.160156,154.835587 
	C360.601959,153.617020 360.313690,152.192459 360.095520,150.383728 
	C363.475800,150.754028 363.405823,152.431580 361.160156,154.835587 
z"/>
<path fill="#47704C" opacity="1.000000" stroke="none" 
	d="
M340.877686,89.734688 
	C339.628601,87.997108 338.314972,85.895821 336.951233,83.425888 
	C338.205109,85.161819 339.509125,87.266396 340.877686,89.734688 
z"/>
<path fill="#47704C" opacity="1.000000" stroke="none" 
	d="
M334.880066,79.757294 
	C333.640717,78.637291 332.339691,77.175766 331.102081,75.356979 
	C332.383148,76.471733 333.600769,77.943748 334.880066,79.757294 
z"/>
<path fill="#47704C" opacity="1.000000" stroke="none" 
	d="
M336.213318,263.816193 
	C336.665039,262.296631 337.429626,260.650543 338.568176,258.952942 
	C338.136810,260.497528 337.331482,262.093567 336.213318,263.816193 
z"/>
<path fill="#47704C" opacity="1.000000" stroke="none" 
	d="
M277.252563,320.880493 
	C278.327759,319.955688 279.754089,318.969299 281.561523,317.941589 
	C280.496338,318.873138 279.050018,319.846008 277.252563,320.880493 
z"/>
<path fill="#47704C" opacity="1.000000" stroke="none" 
	d="
M305.867004,44.776062 
	C304.692017,44.295830 303.426575,43.475723 302.023071,42.349678 
	C303.182129,42.841221 304.479340,43.638706 305.867004,44.776062 
z"/>
<path fill="#47704C" opacity="1.000000" stroke="none" 
	d="
M298.866974,38.776062 
	C297.692047,38.295803 296.426666,37.475685 295.023193,36.349632 
	C296.182220,36.841198 297.479370,37.638695 298.866974,38.776062 
z"/>
<path fill="#47704C" opacity="1.000000" stroke="none" 
	d="
M285.237793,315.907654 
	C285.701111,315.290558 286.497833,314.642090 287.618591,313.947083 
	C287.152100,314.559113 286.361664,315.217712 285.237793,315.907654 
z"/>
<path fill="#47704C" opacity="1.000000" stroke="none" 
	d="
M282.237671,317.907654 
	C282.701019,317.290558 283.497833,316.642090 284.618591,315.947083 
	C284.152100,316.559113 283.361603,317.217712 282.237671,317.907654 
z"/>
<path fill="#47704C" opacity="1.000000" stroke="none" 
	d="
M288.238953,313.907043 
	C288.706726,313.291779 289.509094,312.644562 290.635895,311.944458 
	C290.164764,312.552765 289.369171,313.213898 288.238953,313.907043 
z"/>
<path fill="#47704C" opacity="1.000000" stroke="none" 
	d="
M319.921600,59.779434 
	C319.301483,59.309109 318.646057,58.502327 317.937073,57.369110 
	C318.551117,57.842777 319.218719,58.642876 319.921600,59.779434 
z"/>
<path fill="#47704C" opacity="1.000000" stroke="none" 
	d="
M292.227875,310.924011 
	C292.696442,310.303802 293.500824,309.647644 294.631439,308.937927 
	C294.159668,309.552277 293.361694,310.220184 292.227875,310.924011 
z"/>
<path fill="#47704C" opacity="1.000000" stroke="none" 
	d="
M216.190414,311.827087 
	C216.373795,311.023438 216.863312,310.089264 217.654633,309.020264 
	C217.469803,309.822479 216.983170,310.759521 216.190414,311.827087 
z"/>
<path fill="#47704C" opacity="1.000000" stroke="none" 
	d="
M296.221252,307.921875 
	C296.691528,307.301910 297.498138,306.646606 298.631165,305.937744 
	C298.157593,306.551636 297.357635,307.219086 296.221252,307.921875 
z"/>
<path fill="#47704C" opacity="1.000000" stroke="none" 
	d="
M223.190262,303.827026 
	C223.373611,303.023254 223.863144,302.089020 224.654480,301.019897 
	C224.469666,301.822205 223.983047,302.759338 223.190262,303.827026 
z"/>
<path fill="#47704C" opacity="1.000000" stroke="none" 
	d="
M303.220734,301.921692 
	C303.691101,301.301727 304.497925,300.646454 305.631134,299.937622 
	C305.157410,300.551514 304.357300,301.218964 303.220734,301.921692 
z"/>
<path fill="#47704C" opacity="1.000000" stroke="none" 
	d="
M231.190170,294.826965 
	C231.373520,294.023193 231.863052,293.088928 232.654419,292.019836 
	C232.469620,292.822144 231.982986,293.759277 231.190170,294.826965 
z"/>
<path fill="#47704C" opacity="1.000000" stroke="none" 
	d="
M318.190033,287.826904 
	C318.373413,287.023163 318.862976,286.088959 319.654419,285.019867 
	C319.469574,285.822144 318.982880,286.759277 318.190033,287.826904 
z"/>
<path fill="#47704C" opacity="1.000000" stroke="none" 
	d="
M239.190292,285.827026 
	C239.373657,285.023315 239.863190,284.089050 240.654541,283.019928 
	C240.469711,283.822235 239.983078,284.759369 239.190292,285.827026 
z"/>
<path fill="#47704C" opacity="1.000000" stroke="none" 
	d="
M324.190308,280.827087 
	C324.373749,280.023438 324.863312,279.089233 325.654663,278.020203 
	C325.469788,278.822418 324.983124,279.759491 324.190308,280.827087 
z"/>
<path fill="#47704C" opacity="1.000000" stroke="none" 
	d="
M286.828613,29.811375 
	C286.027832,29.632113 285.098389,29.147732 284.036987,28.362553 
	C284.836700,28.543257 285.768341,29.024757 286.828613,29.811375 
z"/>
<path fill="#47704C" opacity="1.000000" stroke="none" 
	d="
M327.190155,276.827026 
	C327.373627,276.023346 327.863220,275.089233 328.654663,274.020264 
	C328.469788,274.822510 327.983063,275.759521 327.190155,276.827026 
z"/>
<path fill="#47704C" opacity="1.000000" stroke="none" 
	d="
M289.952148,33.519142 
	C289.330536,33.118637 288.660339,32.403019 287.936859,31.365044 
	C288.556915,31.763136 289.230225,32.483585 289.952148,33.519142 
z"/>
<path fill="#47704C" opacity="1.000000" stroke="none" 
	d="
M330.189331,272.828857 
	C330.368530,272.028137 330.852722,271.098663 331.637695,270.037231 
	C331.457092,270.836884 330.975739,271.768494 330.189331,272.828857 
z"/>
<path fill="#47704C" opacity="1.000000" stroke="none" 
	d="
M332.204651,269.815704 
	C332.380188,269.017517 332.859589,268.092377 333.638733,267.036194 
	C333.461792,267.833038 332.985168,268.760895 332.204651,269.815704 
z"/>
<path fill="#47704C" opacity="1.000000" stroke="none" 
	d="
M334.204590,266.815643 
	C334.380127,266.017456 334.859497,265.092316 335.638672,264.036133 
	C335.461761,264.832977 334.985107,265.760803 334.204590,266.815643 
z"/>
<path fill="#47704C" opacity="1.000000" stroke="none" 
	d="
M336.907867,82.761826 
	C336.290741,82.298599 335.642181,81.501984 334.947052,80.381424 
	C335.559113,80.847786 336.217804,81.638107 336.907867,82.761826 
z"/>
<path fill="#47704C" opacity="1.000000" stroke="none" 
	d="
M330.922516,73.780861 
	C330.302582,73.313744 329.648254,72.511665 328.947205,71.383499 
	C329.563049,71.853569 330.225586,72.649742 330.922516,73.780861 
z"/>
<path fill="#47704C" opacity="1.000000" stroke="none" 
	d="
M328.906769,70.760841 
	C328.289642,70.294212 327.640259,69.492676 326.937500,68.366821 
	C327.547546,68.836975 328.211029,69.631454 328.906769,70.760841 
z"/>
<path fill="#47704C" opacity="1.000000" stroke="none" 
	d="
M324.921753,65.779037 
	C324.301636,65.308807 323.646149,64.502159 322.937073,63.369110 
	C323.551147,63.842682 324.218781,64.642647 324.921753,65.779037 
z"/>
<path fill="#47704C" opacity="1.000000" stroke="none" 
	d="
M293.887268,34.882271 
	C293.375092,34.967861 292.792755,34.819550 292.084351,34.394127 
	C292.577881,34.294136 293.197540,34.471249 293.887268,34.882271 
z"/>
<path fill="#47704C" opacity="1.000000" stroke="none" 
	d="
M208.099731,318.369873 
	C208.434738,318.105225 208.869583,318.044800 209.630920,317.934143 
	C209.371460,318.113953 208.785507,318.344025 208.099731,318.369873 
z"/>
<path fill="#47704C" opacity="1.000000" stroke="none" 
	d="
M283.873749,27.866394 
	C283.363678,27.955631 282.785187,27.812073 282.082458,27.392841 
	C282.573914,27.289314 283.189606,27.461456 283.873749,27.866394 
z"/>
</svg>