<svg width="4825" height="1400" viewBox="0 0 4825 1400" fill="none" xmlns="http://www.w3.org/2000/svg">
<path d="M195.979 476.016V196.016L475.979 196.029L195.979 476.016Z" fill="#FF6B1A"/>
<path d="M475.979 1203.98H195.979L195.992 923.984L475.979 1203.98Z" fill="#FF6B1A"/>
<path d="M923.971 196.016L1203.97 196.016L1203.96 476.016L923.971 196.016Z" fill="#FF6B1A"/>
<path d="M1203.97 923.984V1203.98L923.971 1203.97L1203.97 923.984Z" fill="#FF6B1A"/>
<path d="M442.754 903.082V459L557.664 586.267V778.522L442.754 903.082Z" fill="white"/>
<path d="M810.99 453.584L578.557 708.119L805.767 946.407H957.239L711.749 683.749L923.289 453.584H810.99Z" fill="white"/>
<path d="M380.956 403.026L83.9707 700.011L380.956 996.996V403.026Z" fill="#FFA500"/>
<path d="M996.959 380.989L699.975 84.0039L402.99 380.989H996.959Z" fill="#FF6B1A"/>
<path d="M402.99 1019.01L699.975 1316L996.959 1019.01H402.99Z" fill="#FF6B1A"/>
<path d="M1018.99 1010.57L1315.98 713.584L1018.99 416.599V1010.57Z" fill="#FFA500"/>
<path d="M1699.64 379.541H1806.33V675.239H1819.77C1819.77 665.158 1822.57 655.358 1828.17 645.837C1833.77 635.757 1840.49 625.676 1848.33 615.595L2045.74 379.541H2177.63L1913.02 688.68L2187.71 1020.5H2053.31L1848.33 771.845C1834.33 754.484 1819.21 732.922 1802.97 707.161L1792.05 716.401C1798.21 723.682 1802.13 730.962 1803.81 738.243C1805.49 745.523 1806.33 758.964 1806.33 778.565V1020.5H1699.64V379.541ZM2378.63 1029.74C2332.71 1029.74 2295.75 1017.7 2267.75 993.618C2239.75 969.537 2225.75 935.935 2225.75 892.812C2225.75 849.13 2242.83 814.687 2276.99 789.486C2301.63 771.565 2338.03 757.844 2386.2 748.323L2534.88 720.602C2534.32 689.24 2525.92 665.158 2509.68 648.357C2492.32 630.996 2468.8 622.316 2439.12 622.316C2415.04 622.316 2394.04 629.316 2376.11 643.317C2358.19 656.758 2346.99 675.239 2342.51 698.76H2243.39C2251.23 648.357 2273.63 609.715 2310.59 582.833C2348.11 555.952 2391.24 542.511 2439.96 542.511C2467.96 542.511 2494 546.431 2518.08 554.272C2542.72 562.112 2563.73 573.873 2581.09 589.554C2604.05 610.835 2618.33 635.757 2623.93 664.318C2630.09 692.88 2633.17 726.762 2633.17 765.964V1020.5H2534.04V1004.54C2534.04 991.658 2537.4 976.257 2544.12 958.336L2532.36 952.456C2520.6 973.177 2505.48 990.258 2487 1003.7C2461.24 1021.06 2425.12 1029.74 2378.63 1029.74ZM2400.48 949.096C2423.44 949.096 2445 944.335 2465.16 934.815C2488.12 923.054 2504.36 908.773 2513.88 891.972C2519.48 881.892 2523.68 872.371 2526.48 863.41C2529.28 854.45 2532.36 842.409 2535.72 827.288C2537.4 820.008 2539.64 814.687 2542.44 811.327C2545.24 807.407 2549.17 805.167 2554.21 804.607L2551.69 791.166C2506.32 801.247 2474.96 807.687 2457.6 810.487L2410.56 819.728C2378.07 826.448 2355.11 835.969 2341.67 848.289C2330.47 859.49 2324.87 873.491 2324.87 890.292C2324.87 908.773 2331.59 923.334 2345.03 933.975C2359.03 944.055 2377.51 949.096 2400.48 949.096ZM2737.28 379.541H2836.41V651.718C2836.41 665.718 2835.85 678.039 2834.73 688.68C2834.17 699.32 2831.93 711.641 2828.01 725.642L2838.09 730.682C2857.69 708.841 2871.97 694 2880.93 686.16L3019.54 550.911H3148.91L2964.94 725.642C2954.3 735.723 2941.42 743.843 2926.3 750.003V761.764C2939.74 767.925 2952.62 777.725 2964.94 791.166L3165.71 1020.5H3039.7L2880.93 835.689C2872.53 826.168 2858.25 809.087 2838.09 784.446L2828.01 788.646C2831.93 803.767 2834.17 816.928 2834.73 828.128C2835.85 839.329 2836.41 852.49 2836.41 867.611V1020.5H2737.28V379.541ZM3358.15 1029.74C3312.22 1029.74 3275.26 1017.7 3247.26 993.618C3219.26 969.537 3205.26 935.935 3205.26 892.812C3205.26 849.13 3222.34 814.687 3256.5 789.486C3281.14 771.565 3317.55 757.844 3365.71 748.323L3514.4 720.602C3513.84 689.24 3505.44 665.158 3489.2 648.357C3471.83 630.996 3448.31 622.316 3418.63 622.316C3394.55 622.316 3373.55 629.316 3355.63 643.317C3337.71 656.758 3326.51 675.239 3322.03 698.76H3222.9C3230.74 648.357 3253.14 609.715 3290.1 582.833C3327.63 555.952 3370.75 542.511 3419.47 542.511C3447.47 542.511 3473.51 546.431 3497.6 554.272C3522.24 562.112 3543.24 573.873 3560.6 589.554C3583.56 610.835 3597.84 635.757 3603.44 664.318C3609.6 692.88 3612.68 726.762 3612.68 765.964V1020.5H3513.56V1004.54C3513.56 991.658 3516.92 976.257 3523.64 958.336L3511.88 952.456C3500.12 973.177 3485 990.258 3466.51 1003.7C3440.75 1021.06 3404.63 1029.74 3358.15 1029.74ZM3379.99 949.096C3402.95 949.096 3424.51 944.335 3444.67 934.815C3467.63 923.054 3483.88 908.773 3493.4 891.972C3499 881.892 3503.2 872.371 3506 863.41C3508.8 854.45 3511.88 842.409 3515.24 827.288C3516.92 820.008 3519.16 814.687 3521.96 811.327C3524.76 807.407 3528.68 805.167 3533.72 804.607L3531.2 791.166C3485.84 801.247 3454.47 807.687 3437.11 810.487L3390.07 819.728C3357.59 826.448 3334.63 835.969 3321.19 848.289C3309.98 859.49 3304.38 873.491 3304.38 890.292C3304.38 908.773 3311.1 923.334 3324.55 933.975C3338.55 944.055 3357.03 949.096 3379.99 949.096ZM3716.8 550.911H3815.92V571.073C3815.92 579.473 3815.08 586.474 3813.4 592.074C3811.72 597.674 3808.64 603.555 3804.16 609.715L3815.92 617.275C3833.28 590.394 3852.89 571.353 3874.73 560.152C3896.57 548.391 3923.45 542.511 3955.37 542.511H3966.29V639.117H3941.09C3903.57 639.117 3874.73 649.197 3854.57 669.359C3828.8 693.44 3815.92 734.883 3815.92 793.686V1020.5H3716.8V550.911ZM4243.63 1029.74C4197.7 1029.74 4156.82 1019.38 4120.98 998.659C4085.14 977.937 4057.14 949.096 4036.97 912.133C4017.37 874.611 4007.57 831.768 4007.57 783.606C4007.57 737.123 4017.37 695.68 4036.97 659.278C4057.14 622.316 4085.14 593.754 4120.98 573.593C4156.82 552.871 4197.7 542.511 4243.63 542.511C4289.55 542.511 4330.43 552.871 4366.27 573.593C4402.12 593.754 4430.12 622.316 4450.28 659.278C4470.44 695.68 4480.52 737.123 4480.52 783.606C4480.52 831.208 4470.44 873.771 4450.28 911.293C4430.68 948.256 4402.96 977.377 4367.11 998.659C4331.27 1019.38 4290.11 1029.74 4243.63 1029.74ZM4243.63 943.215C4269.39 943.215 4292.63 936.495 4313.35 923.054C4334.07 909.053 4350.03 890.012 4361.23 865.931C4372.99 841.849 4378.88 814.407 4378.88 783.606C4378.88 754.484 4372.99 728.162 4361.23 704.641C4350.03 680.559 4334.07 661.798 4313.35 648.357C4292.63 634.916 4269.39 628.196 4243.63 628.196C4217.87 628.196 4194.62 634.916 4173.9 648.357C4153.18 661.238 4136.94 679.719 4125.18 703.801C4113.98 727.322 4108.38 753.924 4108.38 783.606C4108.38 814.967 4114.26 842.689 4126.02 866.771C4137.78 890.852 4153.74 909.613 4173.9 923.054C4194.62 936.495 4217.87 943.215 4243.63 943.215ZM4710.42 1020.5C4674.02 1020.5 4646.58 1012.1 4628.09 995.298C4609.61 978.497 4600.37 950.776 4600.37 912.133V633.236H4529.81V550.911H4600.37V379.541H4699.5V550.911H4795.27V633.236H4699.5V884.412C4699.5 902.333 4702.3 915.774 4707.9 924.734C4713.5 933.135 4725.82 937.335 4744.86 937.335H4794.43V1020.5H4710.42Z" fill="white"/>
</svg>
